<svg xmlns="http://www.w3.org/2000/svg" width="487" height="230.9"><defs><radialGradient id="a" cx=".5" cy=".5" r=".9" gradientTransform="matrix(.45 0 0 .699 .3 5)" gradientUnits="objectBoundingBox"><stop offset="0" stop-color="#06ae4b"/><stop offset=".2" stop-color="#069643"/><stop offset=".5" stop-color="#067839"/><stop offset=".8" stop-color="#066633"/><stop offset="1" stop-color="#076031"/></radialGradient></defs><g data-name="Group 966" transform="translate(583.3 -4219.5)"><path data-name="Path 1092" d="M-130.2 4253.4a114.6 114.6 0 00-81.6-34h-256a114.6 114.6 0 00-81.6 34 114.6 114.6 0 00-33.9 81.5 114.6 114.6 0 0034 81.6 114.6 114.6 0 0081.5 33.9h256a114.6 114.6 0 0081.6-34 114.6 114.6 0 0033.9-81.5 114.6 114.6 0 00-34-81.5zm-13.5 160.5l-.3.3c-.2 0-.4.2-.5.3l-.5.4-.6.4-.7.6h-.2l-.4.4-.6.4-.8.5-.8.5-.1.1-.5.4-.7.3-.8.6-.9.5-1 .5-.4.3-.7.3-1 .6-1 .5-1.2.5-2.3 1.1-2.5 1-.6.3-.3.1-2.8 1-.6.2-2.2.8-1.8.5-1.6.5-1.6.4v.1l-1.6.4h-.1l-1.5.4-.1.2-1.5.3-.1.2-1.4.2-.2.2-1.4.3-.3.2-1.3.3-.3.2-1.3.2-.3.3-1.3.2-.3.2-1.3.2-.3.3-1.3.2a4.2 4.2 0 01-.3.3l-1.2.2a3.9 3.9 0 01-.4.3l-1.2.1a3.3 3.3 0 01-.4.3l-1.2.2a3 3 0 01-.5.3l-1.1.1a2.6 2.6 0 01-.5.4l-1 .1a2.4 2.4 0 01-.6.4h-1a2.3 2.3 0 01-.7.4l-1 .1a2.2 2.2 0 01-.7.4h-.8a2.4 2.4 0 01-1 .5h-.6a1 1 0 01-.4.2 109.7 109.7 0 01-14.2 1.6l-3.2.2-3 .1-3 .1-3 .1H-452l-3-.2h-3l-3.2-.3a339.3 339.3 0 01-7.6-.6c-2.5-.3-4.8-.6-6.6-1a1 1 0 01-.4-.2h-.7a2.4 2.4 0 01-.9-.4h-.8a2.2 2.2 0 01-.7-.5h-1a2.3 2.3 0 01-.6-.4l-1-.1a2.4 2.4 0 01-.6-.4l-1.1-.1a2.6 2.6 0 01-.5-.4h-1.1a3 3 0 01-.5-.4l-1.2-.2a3.3 3.3 0 01-.4-.3l-1.2-.1a3.8 3.8 0 01-.4-.3l-1.2-.2a4.2 4.2 0 01-.3-.3l-1.3-.2-.3-.3c-.5 0-.9 0-1.3-.2l-.3-.2-1.3-.2-.3-.3-1.3-.2-.3-.2-1.3-.3-.3-.2-1.4-.3-.2-.2-1.4-.2-.1-.2-1.5-.3-.1-.2-1.5-.3-.1-.1-1.5-.4h-.1l-1.5-.5-1.6-.5-1.9-.5-2.2-.8-.6-.2-2.8-1h-.3l-.6-.3-2.5-1-2.3-1.1-1.1-.6h-.1l-1-.5-1-.6-.7-.3-.5-.3-1-.5-.8-.5-.8-.6-.7-.3-.4-.3-.2-.1a45.4 45.4 0 01-1.5-1l-.1-.1-.6-.4a14 14 0 01-.4-.3l-.2-.1-.7-.5-.6-.5-.5-.4-.4-.3-.4-.3-.3-.3-.2-.2a104 104 0 01-35.7-78.5 104 104 0 0135.7-78.4l.2-.3.3-.2.4-.3.4-.4c.1-.2.3-.2.5-.3l.6-.5.7-.5.2-.1.4-.3.6-.4.8-.6.8-.5h.2l.5-.4.6-.4.8-.5.9-.5 1-.5.4-.3.7-.4 1-.5 1-.5 1.2-.6 2.3-1q1.2-.6 2.5-1l.6-.4h.3l2.8-1 .6-.3 2.2-.7 1.8-.5 1.6-.5 1.6-.4.1-.1 1.5-.4.1-.1 1.5-.4.1-.1 1.5-.3.2-.2 1.4-.3.2-.2 1.3-.2.3-.3 1.3-.2.3-.2 1.3-.3.3-.2 1.3-.2.3-.3 1.3-.2.3-.3 1.3-.1a4.4 4.4 0 01.3-.3l1.3-.2a3.8 3.8 0 01.3-.3l1.2-.1a3.4 3.4 0 01.4-.4l1.2-.1a3 3 0 01.5-.4h1.1a2.7 2.7 0 01.5-.4l1.1-.1a2.4 2.4 0 01.5-.4h1a2.3 2.3 0 01.7-.5h1a2.2 2.2 0 01.7-.5h.9a2.4 2.4 0 01.8-.4h.7a1 1 0 01.4-.3 109 109 0 0114.2-1.6l3.2-.1 3.1-.2h3l2.8-.1H-227.6l3 .1 3 .2 3.2.1a313.2 313.2 0 017.6.7c2.6.3 4.8.6 6.6 1a1 1 0 01.4.1h.7a2.4 2.4 0 01.9.5h.9a2.2 2.2 0 01.7.5h1a2.3 2.3 0 01.5.4l1.1.1a2.4 2.4 0 01.5.4h1.1a2.7 2.7 0 01.5.4l1.2.1a3 3 0 01.4.4l1.2.1a3.5 3.5 0 01.4.4h1.2a3.8 3.8 0 01.4.4l1.2.2a4.4 4.4 0 01.4.3l1.2.1.3.3 1.3.2.3.3 1.3.2.3.2 1.4.3.2.2 1.4.2.2.3 1.4.2.2.2 1.4.3.2.2 1.4.3.1.1 1.5.4h.1l1.5.5h.1l1.5.5h.1l1.6.4 1.8.6 2.2.7.7.2 2.7 1 .3.1.7.3 2.4 1 2.4 1.1 1 .5.2.1 1 .5 1 .5.6.4c.2 0 .3.2.5.3l1 .5.8.5.9.5.6.4.5.3.1.1.8.5.8.5v.1l.6.4.4.3h.2l.7.6.6.5.5.3.5.4.3.3.3.2.3.3a104 104 0 0135.6 78.4 104 104 0 01-35.6 78.5l-.3.2z" fill="#4d4e4e"/><rect data-name="Rectangle 687" width="465.6" height="209.5" rx="104.8" transform="translate(-572.6 4230.2)" fill="url(#a)"/><g data-name="Group 965"><g data-name="Group 964"><path data-name="Path 1093" d="M-211.8 4230.2h-256a105 105 0 00-104.8 104.7 105 105 0 00104.8 104.8h256A105 105 0 00-107 4334.9a105 105 0 00-104.8-104.7zm70 174.8a98.5 98.5 0 01-70 29.1h-256a98.5 98.5 0 01-70-29.1 98.5 98.5 0 01-29.2-70 98.5 98.5 0 0129.1-70.1 98.5 98.5 0 0170-29.1h256.1a98.5 98.5 0 0170 29 98.5 98.5 0 0129.2 70.1 98.5 98.5 0 01-29.1 70z" fill="#bc8346"/></g></g><path data-name="Path 1094" d="M-211.8 4230.2h-256a105 105 0 00-104.8 104.7h0a105 105 0 00104.8 104.8h256A105 105 0 00-107 4334.9h0a105 105 0 00-104.8-104.7zm73.4 178a103 103 0 01-73.4 30.6h-256a103 103 0 01-73.4-30.5 103 103 0 01-30.5-73.4 103 103 0 0130.5-73.3 103 103 0 0173.4-30.5h256a103 103 0 0173.4 30.5 103 103 0 0130.5 73.3 103 103 0 01-30.5 73.4z" fill="#221f1f" stroke="#221f1f" stroke-miterlimit="10" stroke-width="1.9" opacity=".3"/><path data-name="Path 1095" d="M-467.8 4434.1a98.5 98.5 0 01-70-29.1 98.5 98.5 0 01-29.2-70 98.5 98.5 0 0129.1-70.1 98.5 98.5 0 0170-29.1h256.1a98.5 98.5 0 0170 29 98.5 98.5 0 0129.2 70.1 98.5 98.5 0 01-29.1 70 98.5 98.5 0 01-70 29.2z" fill="none" stroke="#221f1f" stroke-miterlimit="10" stroke-width="3.1" opacity=".5"/><path data-name="Path 1096" d="M-153.6 4276.7a81.8 81.8 0 00-58.2-24.2h-60.4l-16.7 21a14.7 14.7 0 01-11.5 5.6h-78.8a14.7 14.7 0 01-11.5-5.6l-16.7-21h-60.4a81.8 81.8 0 00-58.2 24.2 81.8 81.8 0 00-24.3 58.2 81.8 81.8 0 0024.3 58.2 81.8 81.8 0 0058.2 24.2h256a81.8 81.8 0 0058.2-24.2 81.8 81.8 0 0024.2-58.2 81.8 81.8 0 00-24.2-58.2z" fill="none" stroke="#46b76e" stroke-miterlimit="10" stroke-width="3.1" opacity=".3"/></g></svg>
